<svg width="24" height="24" viewBox="0 0 24 24" fill="none" xmlns="http://www.w3.org/2000/svg">
<g clip-path="url(#clip0_263_350)">
<path d="M20.4066 16.3467C19.3354 15.186 18.0354 14.2598 16.5885 13.6262C15.1417 12.9927 13.5794 12.6656 11.9999 12.6656C10.4205 12.6656 8.85812 12.9927 7.41129 13.6262C5.96446 14.2598 4.66449 15.186 3.59325 16.3467C3.42786 16.5296 3.33535 16.7668 3.33325 17.0134V21.0134C3.33676 21.2762 3.44366 21.5272 3.63082 21.7119C3.81798 21.8965 4.07033 22 4.33325 22H19.6666C19.9318 22 20.1862 21.8947 20.3737 21.7071C20.5612 21.5196 20.6666 21.2652 20.6666 21V17C20.6613 16.7581 20.569 16.5261 20.4066 16.3467Z" fill="#B4B4B4"/>
<path d="M11.9999 11.3333C14.5772 11.3333 16.6666 9.244 16.6666 6.66667C16.6666 4.08934 14.5772 2 11.9999 2C9.42259 2 7.33325 4.08934 7.33325 6.66667C7.33325 9.244 9.42259 11.3333 11.9999 11.3333Z" fill="#B4B4B4"/>
</g>
<defs>
<clipPath id="clip0_263_350">
<rect width="24" height="24" fill="white"/>
</clipPath>
</defs>
</svg>
